<svg xmlns="http://www.w3.org/2000/svg" width="50" height="50" viewBox="0 0 50 50">
  <g id="Group_7498" data-name="Group 7498" transform="translate(-435 -1522)">
    <circle id="Ellipse_770" data-name="Ellipse 770" cx="25" cy="25" r="25" transform="translate(435 1522)" fill="#00c7cc" opacity="0.09"/>
    <g id="Group_7517" data-name="Group 7517" transform="translate(-1.067 -1.067)">
      <g id="Group_7516" data-name="Group 7516" transform="translate(451 1538)">
        <g id="copyright">
          <path id="Path_336" data-name="Path 336" d="M14.014,10.725,15.6,9.138a4.474,4.474,0,1,0,.2,6.485L14.33,14.155H14.1a2.237,2.237,0,1,1-.081-3.431Z" transform="translate(-2.39 -2.407)" fill="#00c7cc"/>
          <path id="Path_337" data-name="Path 337" d="M13.067,3A10.067,10.067,0,1,1,3,13.067,10.067,10.067,0,0,1,13.067,3Zm0,2.237a7.83,7.83,0,1,1-7.83,7.83A7.83,7.83,0,0,1,13.067,5.237Z" transform="translate(-3 -3)" fill="#00c7cc" fill-rule="evenodd"/>
        </g>
      </g>
    </g>
  </g>
</svg>
