<svg xmlns="http://www.w3.org/2000/svg" width="50" height="50" viewBox="0 0 50 50">
  <g id="Group_7498" data-name="Group 7498" transform="translate(-435 -1522)">
    <circle id="Ellipse_770" data-name="Ellipse 770" cx="25" cy="25" r="25" transform="translate(435 1522)" fill="#00c7cc" opacity="0.09"/>
    <g id="Group_7518" data-name="Group 7518" transform="translate(-0.507 -0.507)">
      <g id="smile-mouth-open" transform="translate(450.137 1537.296)">
        <path id="Path_1204" data-name="Path 1204" d="M12.2,17.2a4.2,4.2,0,0,0,4.2-4.2H8A4.2,4.2,0,0,0,12.2,17.2Z" transform="translate(-1.696 -1.442)" fill="#00c7cc"/>
        <path id="Path_1205" data-name="Path 1205" d="M10.1,10.051A1.051,1.051,0,1,1,9.051,9,1.051,1.051,0,0,1,10.1,10.051Z" transform="translate(-1.696 -1.645)" fill="#00c7cc"/>
        <path id="Path_1206" data-name="Path 1206" d="M15.051,11.1A1.051,1.051,0,1,0,14,10.051,1.051,1.051,0,0,0,15.051,11.1Z" transform="translate(-1.392 -1.645)" fill="#00c7cc"/>
        <path id="Path_1207" data-name="Path 1207" d="M23.014,12.507A10.507,10.507,0,1,1,12.507,2,10.507,10.507,0,0,1,23.014,12.507Zm-2.1,0A8.405,8.405,0,1,1,12.507,4.1,8.405,8.405,0,0,1,20.912,12.507Z" transform="translate(-2 -2)" fill="#00c7cc" fill-rule="evenodd"/>
      </g>
    </g>
  </g>
</svg>
