<svg xmlns="http://www.w3.org/2000/svg" width="65" height="65" viewBox="0 0 65 65">
  <g id="Group_7526" data-name="Group 7526" transform="translate(-435 -1522)">
    <circle id="Ellipse_770" data-name="Ellipse 770" cx="32.5" cy="32.5" r="32.5" transform="translate(435 1522)" fill="#03c2d1" opacity="0.09"/>
    <g id="Group_7530" data-name="Group 7530" transform="translate(-1.322 -1.409)">
      <g id="ring" transform="translate(457.313 1543.667)">
        <path id="Path_1105" data-name="Path 1105" d="M6.343,4A9.048,9.048,0,0,1,19.152,4l-6.4,6.4Zm6.4,3.2L9.819,4.269a6.812,6.812,0,0,1,5.858,0Z" transform="translate(-1.426 -1.343)" fill="#00c7cc" fill-rule="evenodd"/>
        <path id="Path_1106" data-name="Path 1106" d="M2,13.683A11.3,11.3,0,0,1,6.18,4.9L7.791,6.51a9.057,9.057,0,1,0,11.061,0L20.464,4.9A11.322,11.322,0,1,1,2,13.683Z" transform="translate(-2 -0.873)" fill="#00c7cc"/>
      </g>
    </g>
  </g>
</svg>
