<svg xmlns="http://www.w3.org/2000/svg" width="14.344" height="15.279" viewBox="0 0 14.344 15.279">
  <path id="Group_7978" data-name="Group 7978" d="M7.172,7.727a3.773,3.773,0,0,0,3.617-3.915A3.707,3.707,0,0,0,7.172,0,3.739,3.739,0,0,0,3.555,3.833,3.775,3.775,0,0,0,7.172,7.727Zm0-1.736A2.02,2.02,0,0,1,5.353,3.822a1.962,1.962,0,0,1,1.819-2.1A1.96,1.96,0,0,1,9,3.812,2.023,2.023,0,0,1,7.172,5.99ZM2.25,15.279h9.843c1.511,0,2.25-.493,2.25-1.541,0-2.343-2.9-5.189-7.172-5.189S0,11.395,0,13.738C0,14.786.74,15.279,2.25,15.279Zm-.134-1.726c-.113,0-.154-.062-.154-.144,0-1.048,1.88-3.124,5.209-3.124s5.209,2.076,5.209,3.124c0,.082-.041.144-.154.144Z" fill="#00c7cc"/>
</svg>
