<svg xmlns="http://www.w3.org/2000/svg" width="12.583" height="15.279" viewBox="0 0 12.583 15.279">
  <path id="Group_7976" data-name="Group 7976" d="M10.485,6.548a2.056,2.056,0,0,1,1.483.639,2.229,2.229,0,0,1,.614,1.543V13.1a2.229,2.229,0,0,1-.614,1.543,2.056,2.056,0,0,1-1.483.639H2.1A2.056,2.056,0,0,1,.614,14.64,2.229,2.229,0,0,1,0,13.1V8.731A2.229,2.229,0,0,1,.614,7.187,2.056,2.056,0,0,1,2.1,6.548V4.365A4.457,4.457,0,0,1,3.326,1.279a4.079,4.079,0,0,1,5.931,0,4.457,4.457,0,0,1,1.229,3.087ZM6.291,1.455a2.742,2.742,0,0,1,1.977.852,2.972,2.972,0,0,1,.819,2.058V6.548H3.5V4.365a2.972,2.972,0,0,1,.819-2.058A2.742,2.742,0,0,1,6.291,1.455ZM10.485,8H2.1a.685.685,0,0,0-.494.213.743.743,0,0,0-.2.514V13.1a.743.743,0,0,0,.2.514.685.685,0,0,0,.494.213h8.388a.685.685,0,0,0,.494-.213.743.743,0,0,0,.2-.514V8.731a.743.743,0,0,0-.2-.514A.685.685,0,0,0,10.485,8Z" fill="#00c7cc" fill-rule="evenodd"/>
</svg>
