<svg xmlns="http://www.w3.org/2000/svg" width="50" height="50" viewBox="0 0 50 50">
  <g id="Group_7497" data-name="Group 7497" transform="translate(-435 -1522)">
    <circle id="Ellipse_770" data-name="Ellipse 770" cx="25" cy="25" r="25" transform="translate(435 1522)" fill="#00c7cc" opacity="0.09"/>
    <g id="shopping-bag" transform="translate(450 1537)">
      <path id="shopping-bag-2" data-name="shopping-bag" d="M5,4H19a1,1,0,0,1,1,1V19a1,1,0,0,1-1,1H5a1,1,0,0,1-1-1V5A1,1,0,0,1,5,4ZM2,5A3,3,0,0,1,5,2H19a3,3,0,0,1,3,3V19a3,3,0,0,1-3,3H5a3,3,0,0,1-3-3Zm10,7C9.239,12,7,9.314,7,6H9c0,2.566,1.669,4,3,4s3-1.434,3-4h2C17,9.314,14.761,12,12,12Z" transform="translate(-2 -2)" fill="#00c7cc" fill-rule="evenodd"/>
    </g>
  </g>
</svg>
