<svg xmlns="http://www.w3.org/2000/svg" width="72" height="58"><path fill="#F0F6F8" d="M40 38c0 13.333 7.887 20 17.127 20C66.592 58 72 51.111 72 43.333c0-8.537-6.342-14.055-13.424-14.218l-.71-.002c-.505.007-1.01.043-2.091.22h-.676c-.676 0-1.127-.222-1.127-1.11v-.445c.225-3.334 2.028-6.667 4.056-8.89 2.704-2.888 6.31-5.777 9.916-8C69.52 9.779 70.197 8 70.197 6.223c0-1.333-.45-2.444-.901-3.555C68.169 1.11 66.14 0 64.113 0c-1.127 0-2.028.222-2.93.889-5.634 3.778-11.718 8.667-15.55 15.333C42.254 21.778 40 29.556 40 38zM0 38c0-8.444 2.254-16.222 5.634-21.778C9.464 9.556 15.549 4.667 21.184.89 22.083.222 22.985 0 24.112 0c2.028 0 4.056 1.111 5.183 2.667l.243.607c.356.915.658 1.857.658 2.948 0 1.778-.676 3.556-2.253 4.667-3.606 2.222-7.212 5.111-9.916 8-1.947 2.133-3.686 5.29-4.022 8.489l-.034.4v.444c0 .89.45 1.111 1.127 1.111h.676c1.171-.192 1.666-.218 2.217-.221h.262c7.21 0 13.746 5.555 13.746 14.221C32 51.111 26.592 58 17.127 58 7.887 58 0 51.333 0 38z"/></svg>