<svg xmlns="http://www.w3.org/2000/svg" width="50" height="50" viewBox="0 0 50 50">
  <g id="Group_7498" data-name="Group 7498" transform="translate(-435 -1522)">
    <circle id="Ellipse_770" data-name="Ellipse 770" cx="25" cy="25" r="25" transform="translate(435 1522)" fill="#00c7cc" opacity="0.09"/>
    <g id="Group_7521" data-name="Group 7521" transform="translate(-0.919 -0.919)">
      <g id="Group_7520" data-name="Group 7520" transform="translate(451 1538)">
        <g id="scan">
          <path id="Path_1115" data-name="Path 1115" d="M11,3h2.2V22.838H11Z" transform="translate(-2.183 -3)" fill="#00c7cc"/>
          <path id="Path_1116" data-name="Path 1116" d="M5.2,8.306a1.1,1.1,0,0,1,1.1-1.1H9.613V5H6.306A3.306,3.306,0,0,0,3,8.306v8.817a3.306,3.306,0,0,0,3.306,3.306H9.613v-2.2H6.306a1.1,1.1,0,0,1-1.1-1.1Z" transform="translate(-3 -2.796)" fill="#00c7cc"/>
          <path id="Path_1117" data-name="Path 1117" d="M19.408,8.306a1.1,1.1,0,0,0-1.1-1.1H15V5h3.306a3.306,3.306,0,0,1,3.306,3.306v8.817a3.306,3.306,0,0,1-3.306,3.306H15v-2.2h3.306a1.1,1.1,0,0,0,1.1-1.1Z" transform="translate(-1.775 -2.796)" fill="#00c7cc"/>
        </g>
      </g>
    </g>
  </g>
</svg>
